<?xml version="1.0" standalone="no"?>
<!DOCTYPE svg PUBLIC "-//W3C//DTD SVG 20010904//EN"
 "http://www.w3.org/TR/2001/REC-SVG-20010904/DTD/svg10.dtd">
<svg version="1.0" xmlns="http://www.w3.org/2000/svg"
 width="216.000000pt" height="216.000000pt" viewBox="0 0 216.000000 216.000000"
 preserveAspectRatio="xMidYMid meet">
<metadata>
Created by potrace 1.14, written by Peter Selinger 2001-2017
</metadata>
<g transform="translate(0.000000,216.000000) scale(0.100000,-0.100000)"
fill="#000000" stroke="none">
<path d="M399 1943 c-12 -30 -16 -170 -6 -217 16 -76 28 -136 29 -143 1 -17
39 -83 60 -105 13 -13 39 -36 60 -51 20 -14 43 -34 52 -43 9 -8 16 -13 16 -9
0 4 6 0 14 -7 26 -24 51 -43 89 -67 20 -12 37 -27 37 -32 0 -5 5 -9 11 -9 9 0
47 -26 228 -157 13 -10 30 -24 37 -30 7 -7 17 -13 23 -13 6 0 11 -4 11 -9 0
-16 28 -20 54 -8 14 7 26 15 26 20 0 4 5 7 10 7 6 0 23 11 38 25 15 14 32 25
39 25 7 0 13 5 13 10 0 6 5 10 10 10 6 0 23 11 37 24 14 13 37 30 52 38 14 7
30 19 34 25 4 7 12 13 17 13 6 0 18 7 28 16 38 34 77 64 85 64 4 0 20 11 35
25 15 14 32 25 39 25 7 0 13 4 13 8 0 5 27 28 60 52 83 60 96 83 136 245 8 33
17 107 17 150 0 127 -17 167 -53 125 -11 -13 -20 -20 -20 -17 0 3 -17 -10 -37
-28 -21 -19 -41 -35 -44 -35 -3 0 -25 -18 -50 -40 -24 -22 -49 -40 -55 -40 -7
0 -14 -7 -18 -15 -3 -8 -12 -15 -20 -15 -8 0 -16 -4 -18 -8 -4 -9 -124 -102
-132 -102 -3 0 -23 -16 -43 -35 -20 -19 -41 -35 -45 -35 -4 0 -18 -11 -31 -24
-14 -14 -28 -22 -31 -19 -3 4 -6 -1 -6 -11 0 -9 -7 -19 -15 -22 -8 -4 -12 -10
-9 -15 3 -5 1 -9 -4 -9 -11 0 -49 -83 -57 -126 -11 -56 -23 -99 -25 -89 -3 12
-8 40 -14 75 -2 14 -11 42 -19 62 -8 20 -13 39 -9 42 3 3 0 6 -6 6 -6 0 -13 9
-17 20 -7 21 -56 73 -105 111 -18 13 -39 31 -48 39 -8 8 -19 15 -24 15 -5 0
-13 7 -18 15 -5 8 -13 15 -18 15 -9 0 -93 64 -104 80 -4 5 -8 6 -8 2 0 -4 -11
3 -24 17 -13 15 -28 26 -34 26 -5 0 -13 7 -16 16 -4 9 -9 14 -13 11 -3 -4 -14
3 -24 15 -11 11 -19 18 -19 15 0 -7 -37 22 -76 61 -13 13 -24 20 -24 17 0 -3
-11 6 -25 20 -32 31 -33 31 -46 -2z"/>
<path d="M449 1283 c-4 -279 -4 -410 1 -554 l5 -156 45 -59 c64 -85 169 -185
229 -218 29 -15 54 -26 56 -24 9 9 2 480 -10 650 -8 111 -30 167 -100 248 -47
55 -211 220 -218 220 -4 0 -8 -48 -8 -107z"/>
<path d="M1650 1278 c-151 -147 -196 -206 -214 -283 -18 -73 -35 -699 -20
-715 3 -2 29 8 59 24 76 40 223 187 266 266 10 20 13 109 14 413 1 213 -2 387
-5 387 -3 0 -48 -42 -100 -92z"/>
</g>
</svg>
