<svg xmlns="http://www.w3.org/2000/svg" width="32" height="32" enable-background="new 0 0 32 32" viewBox="0 0 32 32"><path fill="#FFF" d="M27.5,16c0-0.531-0.049-1.05-0.118-1.562l2.872-1.493l-0.928-2.854l-3.188,0.479
		c-0.498-0.928-1.123-1.774-1.847-2.527l1.445-2.894l-2.428-1.764l-2.307,2.271c-0.928-0.45-1.923-0.78-2.971-0.967L17.5,1.5h-3
		l-0.531,3.19c-1.048,0.187-2.043,0.517-2.972,0.967L8.69,3.388L6.264,5.151l1.444,2.893C6.985,8.797,6.36,9.645,5.862,10.571
		l-3.189-0.479l-0.927,2.854l2.872,1.492C4.549,14.95,4.5,15.469,4.5,16s0.049,1.05,0.118,1.562l-2.872,1.493l0.928,2.854
		l3.188-0.479c0.498,0.928,1.123,1.774,1.847,2.527L6.264,26.85l2.428,1.764l2.307-2.271c0.928,0.45,1.923,0.78,2.971,0.967
		L14.5,30.5h3l0.531-3.19c1.048-0.187,2.043-0.517,2.972-0.967l2.307,2.27l2.427-1.764l-1.444-2.893
		c0.723-0.753,1.348-1.601,1.846-2.527l3.189,0.479l0.927-2.854l-2.872-1.492C27.451,17.05,27.5,16.531,27.5,16z M16,19.5
		c-1.932,0-3.5-1.568-3.5-3.5s1.568-3.5,3.5-3.5s3.5,1.568,3.5,3.5S17.932,19.5,16,19.5z"/><path fill="#80D8FF" d="M28.833,21.833c0.271,0.041,0.563-0.14,0.648-0.401l0.31-0.95c0.085-0.262,0.204-0.674,0.266-0.915
		c0.061-0.242-0.1-0.522-0.355-0.623l-1.011-0.762c-0.256-0.1-0.655-0.28-0.888-0.4c-0.231-0.121-0.396-0.443-0.364-0.717
		c0,0,0.062-0.533,0.062-1.064s-0.062-1.064-0.062-1.064c-0.031-0.273,0.143-0.601,0.387-0.728l1.985-1.032
		c0.244-0.127,0.374-0.444,0.289-0.706l-0.119-0.365c-0.085-0.262-0.771-2.083-1.043-2.042c0,0-2.665,0.607-2.813,0.375
		l-0.766-0.512c-0.177-0.21-0.279-0.469-0.227-0.574c0.054-0.105-0.039-0.364-0.204-0.574c-0.165-0.211-0.537-0.935-0.414-1.181
		l0.646-1.296c0.123-0.246,0.042-0.58-0.181-0.741l-0.521-0.379c-0.223-0.161-0.564-0.136-0.761,0.057l-1.594,1.569
		c-0.196,0.192-0.564,0.266-0.819,0.162l-2.023-0.656c-0.267-0.067-0.521-0.344-0.566-0.615l-0.064-0.384
		c-0.045-0.271-0.158-0.516-0.252-0.542c-0.094-0.027-0.385-0.303-0.43-0.574l-0.117-0.704C17.787,3.222,17.525,3,17.25,3h-1.504
		c-0.275,0-0.537,0.222-0.582,0.493l-0.367,2.204c-0.045,0.271-0.3,0.548-0.566,0.615L12.206,6.97
		c-0.254,0.103-0.623,0.029-0.819-0.163L9.793,5.238C9.597,5.046,9.255,5.02,9.032,5.182L7.416,6.355
		C7.193,6.518,7.112,6.851,7.235,7.097l0.249,0.5c0.123,0.246,0.224,0.447,0.223,0.448c0,0,0.1,0.202,0.223,0.448L8.23,9.097
		c0.123,0.246,0.079,0.619-0.099,0.83l-1.256,1.722c-0.147,0.232-0.49,0.39-0.762,0.349l-2.201-0.33
		c-0.271-0.041-0.563,0.14-0.648,0.401l-0.31,0.95C2.87,13.28,3,13.598,3.244,13.725l0.931,0.483
		c0.244,0.127,0.418,0.454,0.387,0.728c0,0-0.062,0.533-0.062,1.064c0,0.434,0.035,0.778,0.035,0.778
		c0.028,0.273,0.123,0.558,0.211,0.631c0,0,0,0,0,0.091c0,0.531,0.361,1.133,0.361,1.133c0.141,0.235,0.058,0.532-0.187,0.659
		l-1.985,1.032c-0.244,0.127-0.374,0.444-0.289,0.706l0.119,0.365c0.085,0.262,0.377,0.442,0.648,0.401l1.954-0.294
		c0.271-0.041,0.614,0.116,0.762,0.349l1.257,1.723c0.177,0.21,0.279,0.469,0.227,0.574c-0.054,0.105-1.35,2.701-1.35,2.701
		c-0.123,0.246,1.279,0.93,1.502,1.091l0.521,0.379c0.223,0.161,0.564,0.136,0.761-0.057l1.594-1.569
		c0.196-0.192,0.564-0.266,0.819-0.162l2.023,0.656c0.267,0.067,0.521,0.344,0.566,0.615l0.064,0.384
		c0.045,0.271,0.158,0.516,0.252,0.542c0.094,0.027,0.385,0.303,0.43,0.574l0.117,0.704c0.045,0.271,0.307,0.493,0.582,0.493H17
		c0.275,0,0.537-0.222,0.582-0.493l0.367-2.204c0.045-0.271,0.3-0.548,0.566-0.615l2.024-0.657c0.254-0.103,0.623-0.029,0.819,0.163
		l1.594,1.568c0.196,0.192,0.538,0.219,0.761,0.057l1.616-1.174c0.223-0.162,0.304-0.495,0.181-0.741l-0.249-0.5
		c-0.123-0.246-0.224-0.447-0.223-0.448c0,0-0.1-0.202-0.223-0.448l-0.301-0.604c-0.123-0.246-0.079-0.619,0.099-0.83l1.256-1.722
		c0.147-0.232,0.49-0.39,0.762-0.349L28.833,21.833z M16,19.5c-1.932,0-3.5-1.568-3.5-3.5s1.568-3.5,3.5-3.5s3.5,1.568,3.5,3.5
		S17.932,19.5,16,19.5z"/><path fill="#73C2E6" d="M26.825 12.708c-.244.127-.418.454-.387.728 0 0-.035.542.062 1.064.209 1.126-.205 2.387-.205 2.387-.031.273.133.596.364.717.175.09.443.215.675.313C27.346 17.738 27.5 16.212 27.5 16c0-.531-.062-1.064-.062-1.064-.031-.273.143-.601.387-.728l1.985-1.032c.244-.127.374-.444.289-.706l-.119-.365c-.085-.262-.377-.442-.648-.401l-.808.121L26.825 12.708zM29.701 18.943l-.733-.553c-.058.204-.123.426-.177.591l-.31.95c-.085.262-.377.442-.648.401l-2.201-.33c-.271-.041-.614.116-.762.349l-1.256 1.722c-.178.211-.222.584-.099.83l.301.604c.123.246.223.448.223.448-.001.001.1.202.223.448l.249.5c.123.246.042.579-.181.741l-1.616 1.174c-.223.162-.564.136-.761-.057l-1.594-1.568c-.196-.192-.565-.266-.819-.163l-2.024.657c-.267.067-.521.344-.566.615l-.367 2.204C16.537 28.778 16.275 29 16 29h-1.347c.066.093.126.196.144.303l.117.704c.045.271.307.493.582.493H17c.275 0 .537-.222.582-.493l.367-2.204c.045-.271.3-.548.566-.615l2.024-.657c.254-.103.623-.029.819.163l1.594 1.568c.196.192.538.219.761.057l1.616-1.174c.223-.162.304-.495.181-.741l-.249-.5c-.123-.246-.224-.447-.223-.448 0 0-.1-.202-.223-.448l-.301-.604c-.123-.246-.079-.619.099-.83l1.256-1.722c.147-.232.49-.39.762-.349l2.201.33c.271.041.563-.14.648-.401l.31-.95c.085-.262.204-.674.266-.915C30.117 19.324 29.957 19.044 29.701 18.943zM14.229 27.071l-.064-.384c-.045-.271-.48-.495-.747-.563l-2.956-1.094c-.255-.104-.623-.03-.819.162l-1.594 1.569c-.086.084-.2.13-.319.148l-.144.288c-.123.246-.042.58.181.741l.521.379c.223.161.564.136.761-.057l1.594-1.569c.196-.192.564-.266.819-.162l2.914.969C14.313 27.398 14.257 27.244 14.229 27.071z"/><path fill="#455A64" d="M17.5,31h-3c-0.244,0-0.453-0.177-0.493-0.418l-0.475-2.848c-0.833-0.175-1.648-0.44-2.431-0.792
		l-2.06,2.027c-0.175,0.172-0.448,0.192-0.645,0.048L5.97,27.254c-0.197-0.144-0.263-0.409-0.153-0.628l1.29-2.583
		c-0.582-0.641-1.089-1.334-1.513-2.068l-2.846,0.428c-0.247,0.039-0.475-0.106-0.55-0.34l-0.928-2.854
		c-0.075-0.232,0.028-0.485,0.245-0.598l2.563-1.333C4.025,16.811,4,16.397,4,16s0.025-0.81,0.079-1.278L1.516,13.39
		c-0.217-0.112-0.32-0.365-0.245-0.598l0.927-2.854c0.075-0.232,0.301-0.378,0.55-0.34l2.848,0.427
		c0.158-0.274,0.329-0.544,0.509-0.804C6.26,8.992,6.571,8.937,6.799,9.095C7.026,9.252,7.083,9.563,6.926,9.79
		c-0.226,0.326-0.435,0.669-0.623,1.019c-0.1,0.185-0.302,0.29-0.515,0.257L3.018,10.65l-0.665,2.048l2.496,1.297
		c0.188,0.097,0.293,0.302,0.265,0.511C5.036,15.078,5,15.553,5,16s0.036,0.922,0.113,1.494c0.028,0.209-0.077,0.414-0.265,0.511
		l-2.496,1.298l0.666,2.048l2.77-0.416c0.206-0.034,0.415,0.071,0.515,0.258c0.468,0.87,1.062,1.684,1.767,2.417
		c0.146,0.152,0.182,0.381,0.087,0.57L6.9,26.694l1.742,1.266l2.005-1.974c0.151-0.148,0.378-0.184,0.569-0.094
		c0.904,0.439,1.859,0.75,2.84,0.925c0.208,0.037,0.37,0.201,0.405,0.41L14.924,30h2.152l0.462-2.772
		c0.035-0.209,0.197-0.373,0.405-0.41c0.979-0.175,1.936-0.485,2.842-0.925c0.188-0.091,0.418-0.055,0.568,0.094l2.005,1.973
		l1.741-1.266l-1.255-2.514c-0.095-0.189-0.06-0.417,0.087-0.57c0.703-0.732,1.298-1.546,1.766-2.417
		c0.1-0.186,0.299-0.29,0.515-0.258l2.771,0.415l0.665-2.048l-2.496-1.297c-0.188-0.097-0.293-0.302-0.265-0.511
		C26.964,16.922,27,16.447,27,16s-0.036-0.922-0.113-1.494c-0.028-0.209,0.077-0.414,0.265-0.511l2.496-1.298l-0.666-2.048
		l-2.77,0.416c-0.211,0.029-0.415-0.072-0.515-0.258c-0.468-0.87-1.062-1.684-1.767-2.417c-0.146-0.152-0.182-0.381-0.087-0.57
		L25.1,5.306L23.357,4.04l-2.005,1.974c-0.15,0.148-0.377,0.186-0.569,0.094c-0.904-0.439-1.859-0.75-2.84-0.925
		c-0.208-0.037-0.37-0.201-0.405-0.41L17.076,2h-2.152l-0.462,2.772c-0.035,0.209-0.197,0.373-0.405,0.41
		c-0.979,0.175-1.936,0.485-2.842,0.925c-0.188,0.091-0.417,0.055-0.568-0.094L8.642,4.041L6.9,5.307L8.155,7.82
		c0.123,0.247,0.023,0.548-0.224,0.671C7.684,8.615,7.385,8.514,7.261,8.268L5.816,5.375C5.707,5.156,5.772,4.891,5.97,4.747
		l2.427-1.764c0.196-0.145,0.47-0.123,0.645,0.048l2.06,2.026c0.783-0.352,1.599-0.617,2.432-0.792l0.475-2.848
		C14.047,1.177,14.256,1,14.5,1h3c0.244,0,0.453,0.177,0.493,0.418l0.475,2.848c0.833,0.175,1.648,0.44,2.431,0.792l2.06-2.027
		c0.175-0.171,0.448-0.192,0.645-0.048l2.428,1.764c0.197,0.144,0.263,0.409,0.153,0.628l-1.29,2.583
		c0.582,0.641,1.089,1.334,1.513,2.068l2.846-0.428c0.247-0.038,0.475,0.107,0.55,0.34l0.928,2.854
		c0.075,0.232-0.028,0.485-0.245,0.598l-2.563,1.333C27.975,15.189,28,15.603,28,16s-0.025,0.81-0.079,1.278l2.563,1.332
		c0.217,0.112,0.32,0.365,0.245,0.598l-0.927,2.854c-0.074,0.233-0.303,0.381-0.55,0.34l-2.847-0.427
		c-0.425,0.734-0.931,1.428-1.512,2.068l1.289,2.582c0.109,0.219,0.044,0.484-0.153,0.628l-2.427,1.764
		c-0.196,0.144-0.47,0.123-0.645-0.048l-2.06-2.026c-0.783,0.352-1.599,0.617-2.432,0.792l-0.475,2.848
		C17.953,30.823,17.744,31,17.5,31z M16,20c-2.206,0-4-1.794-4-4s1.794-4,4-4s4,1.794,4,4S18.206,20,16,20z M16,13
		c-1.654,0-3,1.346-3,3s1.346,3,3,3s3-1.346,3-3S17.654,13,16,13z"/><path fill="#455A64" d="M16,24c-4.411,0-8-3.589-8-8s3.589-8,8-8s8,3.589,8,8c0,1.781-0.573,3.468-1.657,4.878
		c-0.168,0.219-0.483,0.259-0.701,0.092c-0.219-0.168-0.26-0.482-0.092-0.701C22.499,19.034,23,17.559,23,16c0-3.859-3.141-7-7-7
		s-7,3.141-7,7s3.141,7,7,7c0.828,0,1.642-0.145,2.42-0.43c0.259-0.093,0.547,0.038,0.642,0.298
		c0.095,0.259-0.038,0.546-0.298,0.642C17.876,23.835,16.945,24,16,24z"/><circle cx="20.5" cy="22" r=".5" fill="#455A64"/></svg>